<?xml version="1.0" standalone="no"?>
<!DOCTYPE svg PUBLIC "-//W3C//DTD SVG 20010904//EN"
 "http://www.w3.org/TR/2001/REC-SVG-20010904/DTD/svg10.dtd">
<svg version="1.0" xmlns="http://www.w3.org/2000/svg"
 width="459.000000pt" height="459.000000pt" viewBox="0 0 459.000000 459.000000"
 preserveAspectRatio="xMidYMid meet">
<metadata>
Created by potrace 1.14, written by Peter Selinger 2001-2017
</metadata>
<g transform="translate(0.000000,459.000000) scale(0.100000,-0.100000)"
fill="#000000" stroke="none">
<path d="M1363 3380 c-65 -10 -136 -47 -162 -86 -31 -45 -34 -144 -6 -191 16
-28 95 -84 95 -67 0 3 6 2 13 -4 18 -14 80 -23 177 -24 199 -2 295 47 308 157
16 148 -68 214 -278 219 -58 1 -124 0 -147 -4z"/>
<path d="M2430 3028 c0 -22 -13 -29 -30 -16 -12 8 -12 9 3 4 9 -3 17 -1 17 4
0 13 -27 13 -35 0 -3 -5 -13 -6 -22 -3 -10 4 -14 2 -10 -4 4 -6 -3 -8 -18 -5
-17 3 -27 -1 -31 -12 -3 -9 -10 -16 -16 -16 -5 0 -6 5 -2 12 5 8 2 9 -12 4
-10 -5 -27 -11 -36 -13 -10 -3 -18 -10 -18 -15 0 -5 -5 -6 -12 -2 -7 5 -9 2
-6 -8 4 -8 2 -21 -4 -29 -8 -11 -9 -11 -4 3 3 10 1 20 -4 23 -6 4 -10 1 -10
-6 0 -7 -3 -9 -7 -6 -3 4 -12 -1 -20 -11 -8 -9 -11 -11 -7 -3 5 10 3 12 -5 7
-7 -5 -10 -14 -7 -22 3 -8 1 -14 -4 -14 -6 0 -10 5 -10 11 0 6 -22 -7 -48 -30
-48 -39 -64 -74 -33 -69 9 2 19 10 23 18 6 11 7 10 5 -5 -1 -14 -10 -20 -27
-20 -15 0 -24 5 -22 13 3 18 -8 15 -29 -10 -21 -26 -25 -43 -7 -32 7 4 8 3 4
-5 -4 -6 -11 -9 -16 -6 -9 6 -70 -73 -70 -91 0 -7 -3 -14 -7 -16 -12 -5 -43
-76 -43 -97 0 -10 -3 -21 -7 -25 -4 -3 -8 -12 -9 -19 -1 -7 -6 -30 -10 -52
-10 -53 -11 -158 -1 -224 9 -63 14 -74 30 -64 9 5 9 3 1 -8 -9 -10 -8 -25 3
-61 9 -26 20 -45 24 -42 5 3 6 -2 3 -10 -4 -11 0 -16 12 -17 11 0 14 -3 6 -6
-6 -2 -10 -9 -7 -13 3 -5 12 -7 19 -4 8 3 17 1 21 -5 3 -7 0 -8 -9 -5 -22 8
-20 -13 2 -25 9 -6 13 -11 9 -11 -4 0 -3 -9 3 -20 6 -11 16 -17 22 -14 6 4 8
3 5 -4 -6 -9 75 -100 114 -127 47 -33 71 -45 80 -40 5 4 8 2 7 -3 -2 -6 1 -10
5 -11 4 0 15 -7 23 -16 9 -8 23 -15 33 -15 9 0 21 -4 27 -9 10 -11 55 -23 92
-25 12 0 22 -4 22 -8 0 -4 9 -5 20 -3 11 2 22 0 25 -6 4 -5 51 -7 110 -4 362
15 645 297 659 655 10 272 -147 537 -379 640 -28 12 -58 26 -67 31 -24 12 -48
12 -28 -1 9 -6 10 -10 3 -10 -7 0 -16 6 -20 14 -4 8 -21 17 -38 20 -16 3 -40
8 -52 12 -14 4 -23 2 -23 -5 0 -6 6 -10 13 -8 6 1 12 -4 12 -12 0 -8 -6 -15
-13 -17 -7 -1 -8 0 -2 3 5 2 10 9 10 14 0 6 -4 8 -8 5 -5 -3 -16 4 -26 16 -10
11 -21 17 -25 12 -7 -11 -26 -12 -36 -3 -9 9 -45 -1 -45 -13 0 -5 4 -7 9 -4
10 7 43 -39 34 -48 -10 -10 -33 -7 -33 4 0 5 7 7 16 3 14 -5 14 -3 3 15 -7 11
-16 20 -20 19 -4 -1 -15 7 -23 18 -13 17 -15 18 -16 3z m134 -24 c3 -8 2 -12
-4 -9 -6 3 -10 10 -10 16 0 14 7 11 14 -7z m-180 -36 c-7 -11 -34 -10 -34 2 0
5 7 7 15 4 11 -5 14 -1 9 12 -5 15 -4 16 4 4 6 -8 8 -18 6 -22z m31 14 c-3 -3
-11 0 -18 7 -9 10 -8 11 6 5 10 -3 15 -9 12 -12z m35 11 c0 -5 -5 -15 -10 -23
-7 -12 -9 -10 -7 8 1 19 17 33 17 15z m90 -3 c0 -5 -4 -10 -10 -10 -5 0 -10 5
-10 10 0 6 5 10 10 10 6 0 10 -4 10 -10z m86 -5 c-8 -21 26 -16 36 5 6 11 7
10 5 -4 -2 -18 -32 -30 -48 -20 -8 5 -1 34 8 34 3 0 2 -7 -1 -15z m-356 -10
c0 -2 -9 -9 -20 -15 -12 -6 -20 -7 -20 -1 0 5 8 12 18 14 9 3 18 5 20 6 1 0 2
-1 2 -4z m296 -25 c1 -16 -1 -30 -5 -30 -3 0 -7 14 -7 30 -1 17 1 30 5 30 3 0
7 -13 7 -30z m189 12 c-3 -3 -11 0 -18 7 -9 10 -8 11 6 5 10 -3 15 -9 12 -12z
m-400 -33 c6 0 11 -12 12 -27 2 -19 0 -23 -6 -13 -5 8 -7 20 -4 28 3 8 0 13
-8 11 -8 -2 -14 7 -16 22 -2 24 -2 24 5 2 4 -13 12 -23 17 -23z m109 9 c-3 -4
5 -7 17 -5 18 2 23 -3 23 -23 0 -19 -5 -25 -20 -23 -13 1 -20 -4 -21 -17 -1
-13 4 -18 17 -15 11 2 23 -1 26 -7 4 -7 2 -8 -4 -4 -8 5 -12 -1 -13 -16 l-1
-23 -6 23 c-4 13 -11 23 -17 23 -5 -1 -10 9 -10 22 1 16 6 21 21 20 13 -1 20
4 20 17 0 13 -7 18 -19 17 -14 -1 -21 5 -23 23 -3 18 -2 21 5 10 5 -8 7 -18 5
-22z m-164 6 c0 -2 -7 -4 -15 -4 -8 0 -15 4 -15 10 0 5 7 7 15 4 8 -4 15 -8
15 -10z m105 6 c-27 -12 -43 -12 -25 0 8 5 22 9 30 9 10 0 8 -3 -5 -9z m135 6
c0 -2 -7 -6 -15 -10 -8 -3 -15 -1 -15 4 0 6 7 10 15 10 8 0 15 -2 15 -4z m70
-6 c0 -5 -8 -10 -17 -10 -15 0 -16 2 -3 10 19 12 20 12 20 0z m80 -5 c0 -8 -2
-15 -4 -15 -2 0 -6 7 -10 15 -3 8 -1 15 4 15 6 0 10 -7 10 -15z m60 -2 c0 -3
-7 -2 -16 1 -12 5 -15 2 -10 -11 6 -14 4 -15 -5 -6 -14 14 -3 34 16 26 8 -3
15 -7 15 -10z m-86 -14 c-3 -5 -14 -7 -25 -4 -14 5 -17 3 -13 -9 3 -9 2 -16
-4 -16 -6 0 -9 8 -7 18 1 11 10 16 24 15 15 -2 20 1 15 9 -4 7 -3 8 5 4 6 -4
9 -12 5 -17z m-398 -12 c1 -9 -2 -15 -7 -11 -5 3 -7 9 -4 14 3 5 -4 8 -15 7
-12 -1 -19 -6 -16 -14 3 -7 1 -13 -4 -13 -11 0 -14 23 -5 32 12 12 48 2 51
-15z m55 -10 c-5 -5 -17 -4 -28 2 -16 11 -16 11 4 6 19 -5 22 -3 17 12 -5 15
-4 15 5 3 6 -8 6 -19 2 -23z m-141 -3 c0 -8 4 -13 9 -9 5 3 12 1 15 -4 4 -5
-1 -8 -10 -7 -19 3 -41 36 -24 36 5 0 10 -7 10 -16z m240 6 c-8 -5 -22 -9 -30
-9 -10 0 -8 3 5 9 27 12 43 12 25 0z m30 0 c0 -5 -10 -15 -22 -21 l-23 -12 20
21 c23 24 25 25 25 12z m96 -1 c3 -6 2 -15 -4 -21 -6 -6 -12 -6 -17 3 -5 8 -4
10 3 5 7 -4 12 -3 12 3 0 5 -6 12 -12 14 -10 4 -10 6 -1 6 6 1 15 -4 19 -10z
m47 4 c-7 -2 -13 -9 -13 -14 0 -6 4 -8 8 -5 4 2 14 0 22 -5 12 -7 10 -8 -7 -6
-12 2 -25 6 -29 9 -9 9 5 28 19 27 9 0 9 -2 0 -6z m101 -8 c-10 -7 -22 -11
-27 -8 -12 7 0 19 23 20 21 2 21 1 4 -12z m-528 -41 c3 -16 2 -26 -1 -23 -3 4
-8 19 -11 35 -3 16 -2 26 1 23 3 -4 8 -19 11 -35z m84 26 c0 -5 -8 -10 -17
-10 -15 0 -16 2 -3 10 19 12 20 12 20 0z m100 -16 c0 -8 -4 -14 -10 -14 -5 0
-7 8 -3 18 5 14 3 15 -8 5 -7 -7 -17 -13 -23 -13 -5 0 -1 6 9 14 22 16 35 12
35 -10z m-83 -5 c-1 -21 -37 -49 -37 -29 0 5 7 10 15 10 8 0 14 3 14 8 -2 13
1 32 5 32 3 0 4 -9 3 -21z m-127 7 c0 -2 -7 -6 -15 -10 -8 -3 -15 -1 -15 4 0
6 7 10 15 10 8 0 15 -2 15 -4z m270 -7 c12 -8 10 -9 -8 -4 -15 4 -22 3 -20 -6
2 -7 -6 -14 -17 -16 l-20 -3 20 9 c11 5 16 10 12 10 -10 1 1 21 11 21 4 0 14
-5 22 -11z m130 -5 c0 -2 -7 -4 -15 -4 -8 0 -15 4 -15 10 0 5 7 7 15 4 8 -4
15 -8 15 -10z m105 6 c3 -5 1 -10 -4 -10 -6 0 -11 5 -11 10 0 6 2 10 4 10 3 0
8 -4 11 -10z m-541 -19 c3 -5 -2 -15 -12 -22 -15 -13 -16 -12 -4 3 11 14 10
17 -10 21 -22 4 -22 4 -1 6 12 0 24 -3 27 -8z m45 -14 c0 -9 -2 -8 -6 1 -2 6
-10 9 -15 6 -7 -4 -8 -2 -4 5 9 13 26 5 25 -12z m186 5 c-3 -3 -11 0 -18 7 -9
10 -8 11 6 5 10 -3 15 -9 12 -12z m115 -14 c0 -19 -16 -5 -17 14 -2 18 0 20 7
8 5 -8 10 -18 10 -22z m120 22 c0 -5 -4 -10 -10 -10 -5 0 -10 5 -10 10 0 6 5
10 10 10 6 0 10 -4 10 -10z m-366 -18 c2 -4 0 -14 -6 -22 -8 -12 -9 -11 -4 3
5 15 2 17 -17 12 -17 -5 -19 -4 -7 4 18 13 27 14 34 3z m71 -2 c-3 -5 -12 -10
-18 -10 -7 0 -6 4 3 10 19 12 23 12 15 0z m35 0 c0 -5 -4 -10 -10 -10 -5 0
-10 5 -10 10 0 6 5 10 10 10 6 0 10 -4 10 -10z m95 0 c-27 -12 -43 -12 -25 0
8 5 22 9 30 9 10 0 8 -3 -5 -9z m128 3 c-7 -2 -13 -9 -13 -14 0 -6 4 -8 9 -4
6 3 15 -5 21 -17 11 -22 10 -22 -4 -4 -9 11 -16 16 -16 11 0 -5 -5 -4 -11 2
-13 13 -4 33 14 32 9 0 9 -2 0 -6z m-408 -22 c-3 -6 -11 -9 -16 -6 -5 4 -9 -3
-9 -13 0 -15 5 -19 19 -15 22 6 37 -12 20 -23 -8 -5 -9 -3 -4 5 5 9 0 12 -16
9 -20 -2 -24 1 -24 22 0 15 5 24 13 23 6 -2 12 2 12 9 0 6 3 9 6 5 3 -3 3 -11
-1 -16z m125 -13 c0 -6 -8 -4 -17 3 -15 12 -16 12 -10 -3 3 -10 2 -18 -3 -18
-11 0 -14 23 -4 33 8 8 34 -3 34 -15z m97 -9 c2 -18 1 -20 -6 -9 -5 8 -7 18
-5 22 3 4 0 8 -5 8 -6 0 -11 -5 -11 -12 0 -6 -3 -9 -6 -5 -9 9 6 29 19 24 5
-1 12 -14 14 -28z m80 0 c-4 -14 0 -19 13 -19 13 0 18 6 15 20 -2 11 1 23 7
26 7 4 8 2 4 -4 -4 -7 -1 -12 6 -12 10 0 10 -2 0 -9 -8 -4 -13 -12 -13 -17 1
-5 -9 -9 -21 -9 -16 0 -22 6 -22 27 -1 14 2 24 7 21 5 -3 7 -14 4 -24z m-137
6 c0 -8 -4 -15 -10 -15 -5 0 -7 7 -4 15 4 8 8 15 10 15 2 0 4 -7 4 -15z m-270
-5 c8 -5 11 -10 5 -10 -5 0 -17 5 -25 10 -8 5 -10 10 -5 10 6 0 17 -5 25 -10z
m160 -4 c-1 -5 11 -17 27 -27 15 -10 24 -19 20 -19 -17 0 -56 33 -50 43 4 6 0
8 -10 4 -10 -3 -17 -2 -17 4 0 6 7 9 16 7 8 -2 14 -7 14 -12z m225 4 c-3 -5
-12 -10 -18 -10 -7 0 -6 4 3 10 19 12 23 12 15 0z m-305 -54 c0 -6 -7 -1 -15
10 -8 10 -15 23 -15 28 0 6 7 1 15 -10 8 -10 15 -23 15 -28z m170 18 c0 -8 -4
-14 -10 -14 -5 0 -7 6 -4 14 4 11 -1 13 -18 10 -21 -4 -21 -3 -3 5 23 10 35 5
35 -15z m60 13 c0 -5 -7 -7 -15 -3 -10 4 -14 -1 -12 -16 1 -15 -5 -22 -23 -24
-18 -3 -21 -2 -10 5 8 5 18 7 24 4 5 -4 7 1 3 11 -4 10 -5 21 -2 25 6 11 35 9
35 -2z m31 -10 c-10 -9 -11 -8 -5 6 3 10 9 15 12 12 3 -3 0 -11 -7 -18z m173
11 c-3 -4 -11 -5 -19 -1 -21 7 -19 12 4 10 11 0 18 -5 15 -9z m-524 -8 c0 -5
-5 -10 -11 -10 -5 0 -7 5 -4 10 3 6 8 10 11 10 2 0 4 -4 4 -10z m21 -13 c-10
-9 -11 -8 -5 6 3 10 9 15 12 12 3 -3 0 -11 -7 -18z m175 -18 c3 -6 -5 -3 -20
6 -19 13 -26 14 -26 4 0 -7 -3 -10 -6 -6 -3 3 -3 10 1 16 7 12 39 -1 51 -20z
m214 21 c11 -8 8 -9 -13 -4 -20 5 -27 3 -25 -7 2 -7 -5 -15 -14 -17 -10 -2
-18 1 -18 7 0 6 7 8 15 4 9 -3 15 -2 14 3 -4 26 14 32 41 14z m55 0 c-3 -5
-12 -10 -18 -10 -7 0 -6 4 3 10 19 12 23 12 15 0z m35 0 c0 -5 -4 -10 -10 -10
-5 0 -10 5 -10 10 0 6 5 10 10 10 6 0 10 -4 10 -10z m-535 -18 c-3 -3 -11 0
-18 7 -9 10 -8 11 6 5 10 -3 15 -9 12 -12z m362 -34 c-3 -7 -5 -2 -5 12 0 14
2 19 5 13 2 -7 2 -19 0 -25z m73 22 c0 -5 -5 -10 -11 -10 -5 0 -7 5 -4 10 3 6
8 10 11 10 2 0 4 -4 4 -10z m40 -5 c0 -8 -4 -15 -8 -15 -5 0 -9 7 -9 15 0 8 4
15 9 15 4 0 8 -7 8 -15z m50 11 c0 -2 -7 -6 -15 -10 -8 -3 -15 -1 -15 4 0 6 7
10 15 10 8 0 15 -2 15 -4z m-73 -43 c2 -6 -1 -14 -6 -18 -6 -3 -8 0 -5 8 4 11
-4 14 -30 12 -20 -1 -36 2 -36 7 0 12 73 3 77 -9z m36 -3 c-3 -12 -8 -19 -11
-16 -5 6 5 36 12 36 2 0 2 -9 -1 -20z m-577 -547 c-7 -38 -14 -38 -12 1 0 19
4 32 9 29 4 -2 5 -16 3 -30z m39 28 c3 -5 2 -12 -3 -15 -5 -3 -9 1 -9 9 0 17
3 19 12 6z m85 -45 c0 -3 -4 -8 -10 -11 -5 -3 -10 -1 -10 4 0 6 5 11 10 11 6
0 10 -2 10 -4z m91 -19 c-10 -9 -11 -8 -5 6 3 10 9 15 12 12 3 -3 0 -11 -7
-18z m-94 -20 c0 -8 -6 -14 -14 -14 -9 0 -10 4 -2 14 6 7 12 13 14 13 1 0 2
-6 2 -13z m47 -5 c3 -5 -1 -9 -9 -9 -8 0 -12 4 -9 9 3 4 7 8 9 8 2 0 6 -4 9
-8z m76 2 c0 -8 -19 -13 -24 -6 -3 5 1 9 9 9 8 0 15 -2 15 -3z m155 -32 c-3
-3 -11 0 -18 7 -9 10 -8 11 6 5 10 -3 15 -9 12 -12z m-294 -9 c13 -16 12 -17
-3 -4 -10 7 -18 15 -18 17 0 8 8 3 21 -13z m72 2 c-3 -9 -8 -14 -10 -11 -3 3
-2 9 2 15 9 16 15 13 8 -4z m187 11 c0 -2 -8 -10 -17 -17 -16 -13 -17 -12 -4
4 13 16 21 21 21 13z m-40 -12 c0 -8 -19 -13 -24 -6 -3 5 1 9 9 9 8 0 15 -2
15 -3z m-103 -39 c0 -8 -4 -15 -9 -15 -10 0 -11 14 -1 23 9 10 10 9 10 -8z
m100 -32 c0 -9 -4 -10 -14 -2 -7 6 -13 12 -13 14 0 1 6 2 13 2 8 0 14 -6 14
-14z m87 5 c-3 -4 -9 -8 -15 -8 -5 0 -9 4 -9 8 0 5 7 9 15 9 8 0 12 -4 9 -9z
m-44 -18 c0 -5 -2 -10 -4 -10 -3 0 -8 5 -11 10 -3 6 -1 10 4 10 6 0 11 -4 11
-10z m54 -19 c-9 -9 -34 -9 -34 -1 0 5 9 8 20 7 10 -1 17 -3 14 -6z m-234 -22
c0 -5 -4 -9 -8 -9 -5 0 -9 7 -9 15 0 8 4 12 9 9 4 -3 8 -9 8 -15z m80 2 c0 -6
-4 -12 -8 -15 -5 -3 -9 1 -9 9 0 8 4 15 9 15 4 0 8 -4 8 -9z m-67 -36 c-3 -9
-8 -14 -10 -11 -3 3 -2 9 2 15 9 16 15 13 8 -4z m-29 -3 c3 -5 -1 -9 -9 -9 -8
0 -12 4 -9 9 3 4 7 8 9 8 2 0 6 -4 9 -8z m91 -1 c3 -5 2 -12 -3 -15 -5 -3 -9
1 -9 9 0 17 3 19 12 6z m40 -9 c-3 -3 -11 0 -18 7 -9 10 -8 11 6 5 10 -3 15
-9 12 -12z m101 2 c-1 -8 -6 -17 -12 -21 -5 -4 -6 -4 -2 1 4 5 3 14 -2 21 -7
8 -5 12 4 12 8 0 13 -6 12 -13z m44 2 c0 -2 -8 -10 -17 -17 -16 -13 -17 -12
-4 4 13 16 21 21 21 13z m-163 -43 c0 -8 -4 -10 -12 -3 -7 5 -16 6 -20 2 -5
-4 -5 -2 -2 4 9 15 34 13 34 -3z m54 -80 c13 -16 12 -17 -3 -4 -10 7 -18 15
-18 17 0 8 8 3 21 -13z m73 -15 c-3 -4 -9 -8 -15 -8 -5 0 -9 4 -9 8 0 5 7 9
15 9 8 0 12 -4 9 -9z m33 -3 c0 -8 -4 -12 -9 -9 -5 3 -6 10 -3 15 9 13 12 11
12 -6z m54 -22 c13 -16 12 -17 -3 -4 -15 11 -21 11 -35 0 -16 -13 -17 -12 -4
4 7 9 17 17 21 17 4 0 14 -8 21 -17z"/>
<path d="M428 3004 c-270 -42 -414 -186 -401 -402 4 -78 34 -141 95 -198 59
-56 105 -86 306 -195 208 -113 252 -147 252 -194 0 -69 -83 -109 -218 -107
-79 1 -250 43 -361 88 -47 19 -85 34 -86 34 0 0 -2 -53 -4 -117 -1 -65 -4
-120 -7 -124 -5 -9 204 -50 326 -65 25 -3 56 -7 70 -10 14 -3 77 -7 140 -10
281 -14 497 85 584 266 27 57 31 75 30 150 -1 181 -68 251 -413 430 -192 100
-235 133 -227 180 2 18 12 40 22 51 34 37 137 49 245 29 30 -6 65 -13 79 -15
23 -4 192 -42 215 -48 6 -1 15 -5 20 -9 7 -4 10 31 10 102 0 59 -3 106 -7 104
-4 -2 -9 0 -12 4 -3 5 -15 8 -28 7 -13 -1 -27 1 -33 5 -5 5 -28 11 -50 14 -22
3 -51 8 -65 11 -161 29 -366 37 -482 19z"/>
<path d="M3865 3009 c-217 -26 -391 -121 -501 -275 -88 -123 -128 -257 -127
-424 2 -246 126 -445 338 -540 118 -54 218 -70 385 -65 139 4 192 8 229 19 9
3 39 8 66 12 28 3 53 8 56 10 3 2 21 6 40 9 28 4 60 11 99 20 3 1 29 5 58 9
l54 8 -7 45 c-3 25 -9 55 -11 66 -3 12 -8 40 -12 62 -9 45 -12 46 -122 31
-310 -40 -516 30 -594 204 -14 32 -29 72 -32 89 -6 30 -5 31 27 32 19 1 43 3
54 4 11 1 56 5 100 9 44 4 96 9 115 11 19 2 73 7 120 11 47 4 99 8 115 10 17
1 66 5 110 9 44 4 95 8 113 10 18 1 36 6 40 9 16 16 3 207 -19 291 -30 111
-185 248 -330 293 -103 32 -249 44 -364 31z m156 -239 c27 -28 39 -78 44 -177
1 -33 -2 -43 -14 -44 -9 0 -23 -2 -31 -4 -8 -1 -42 -5 -75 -8 -33 -4 -86 -9
-119 -13 l-59 -7 7 79 c7 83 30 148 63 177 51 45 141 43 184 -3z"/>
<path d="M1653 2906 c-46 -13 -83 -21 -83 -20 0 2 -22 -5 -49 -16 -27 -10 -52
-16 -55 -13 -3 4 -6 0 -6 -7 0 -7 -3 -10 -6 -7 -4 3 -16 1 -28 -5 -11 -7 -26
-13 -32 -14 -26 -4 -86 -38 -91 -51 -3 -7 -8 -11 -13 -8 -10 6 -47 -35 -59
-66 -6 -17 -10 -210 -10 -503 l0 -476 269 0 268 0 0 605 c-1 425 -5 605 -12
604 -6 0 -48 -11 -93 -23z"/>
</g>
</svg>
